<svg width="54" height="52" viewBox="0 0 54 52" fill="none" xmlns="http://www.w3.org/2000/svg">
<path d="M53.4842 8.31618L53.3893 7.2647L52.441 6.59559C48.4582 3.82353 40.8718 0.573528 27.3111 0.573528C22.1902 0.573528 17.5436 1.05147 13.4659 2.00735C12.0434 0.764704 10.1468 0 8.15539 0C3.69838 0 0 3.63235 0 8.22059C0 9.65441 0.379326 10.9926 1.04314 12.2353C1.2328 19.3088 3.41389 26.6691 7.68124 34.125C14.6987 46.0735 22.1902 49.6103 25.7938 51.2353C26.0783 51.3309 26.2679 51.4265 26.4576 51.5221L27.4059 52L28.3542 51.5221C28.5439 51.4265 28.8284 51.3309 29.018 51.2353C32.7164 49.6103 40.1131 46.0735 46.9409 34.125C54.4325 21.0294 53.7687 11.4706 53.4842 8.31618Z" fill="white"/>
<path d="M25.2248 18.6402C25.2248 18.6402 26.4576 18.7358 27.5007 20.074L26.9317 20.1696L26.6472 20.074C26.6472 20.074 25.7938 19.0226 25.2248 18.6402ZM23.3282 24.5667L22.7592 23.1329H22.5695L21.6212 24.2799C22.285 24.8535 23.3282 24.5667 23.3282 24.5667ZM32.0525 16.1549L31.5784 16.3461L32.1474 17.3976L34.044 18.0667C33.2853 16.4417 32.0525 16.1549 32.0525 16.1549ZM26.6472 18.1623C27.2162 18.8314 27.7852 19.7873 27.7852 19.7873C28.7335 18.8314 30.7249 18.449 33.2853 18.5446C29.6818 17.7799 26.6472 18.1623 26.6472 18.1623ZM23.1385 16.7285C23.1385 16.7285 24.1816 16.7285 25.6041 17.0152C24.6558 16.3461 23.1385 15.9638 23.1385 15.9638V16.7285ZM31.8629 21.9858L30.2508 23.4196L31.4836 23.802L32.7164 22.4638L32.0525 22.177L31.8629 21.9858ZM21.1471 14.4343C21.1471 14.4343 21.8109 14.8167 21.9057 14.8167C22.0006 14.8167 23.3282 15.2946 23.8972 15.4858C24.3713 15.677 24.6558 15.4858 24.7506 15.4858C24.8455 15.4858 26.4576 14.5299 26.4576 14.5299C25.0351 13.9564 23.7075 13.574 23.7075 13.574C23.6127 13.574 21.1471 14.4343 21.1471 14.4343ZM30.8197 15.2946C30.7249 15.1035 30.5353 15.1035 29.3973 14.9123C28.3542 14.8167 27.4059 14.7211 27.2162 14.7211C27.0265 14.7211 26.9317 14.8167 26.9317 14.8167C26.9317 14.8167 26.3627 15.199 25.8886 15.4858C25.4144 15.7726 25.3196 15.8682 25.2248 16.0593C25.1299 16.1549 25.4144 16.5373 25.4144 16.5373L26.1731 17.4932C26.2679 17.4932 26.5524 17.6843 26.5524 17.6843C26.5524 17.6843 28.0697 17.5888 29.018 17.4932H31.4836C31.5784 17.4932 31.4836 17.1108 31.2939 16.6329C31.1042 16.2505 30.8197 15.2946 30.8197 15.2946ZM21.8109 16.3461C21.8109 16.3461 21.9057 16.3461 22.0954 16.4417C22.285 16.4417 22.3799 16.2505 22.3799 16.0593C22.3799 15.7726 22.0954 15.677 22.0954 15.677H21.9057L21.6212 15.7726L21.5264 16.4417H21.6212L21.8109 16.3461C21.7161 16.1549 21.7161 16.0593 21.7161 15.8682C21.7161 15.7726 21.9057 15.5814 22.0006 15.5814C22.0006 15.5814 22.1902 15.5814 22.0954 15.9638C22.0954 16.3461 21.8109 16.3461 21.8109 16.3461ZM37.8372 23.8976L37.0785 24.949V25.0446H38.1217C38.3113 24.3755 37.8372 23.8976 37.8372 23.8976ZM18.8712 18.927H18.6815L18.2074 18.8314C17.7332 18.7358 17.9229 17.8755 17.9229 17.8755L17.3539 18.0667C17.1642 17.6843 16.3107 16.6329 16.3107 16.6329L16.1211 17.3976C16.2159 17.4932 16.6901 18.2579 16.7849 18.449L16.5004 18.7358C16.5004 18.7358 16.4056 18.927 16.4056 19.0226C16.4056 19.1182 16.3107 19.2138 16.3107 19.2138L15.9314 19.4049H15.8366L14.509 18.3535V19.1182H14.6038C14.6986 19.3093 14.8883 19.6917 15.3624 19.8829C15.7418 20.074 16.2159 20.074 16.4056 19.9785C16.5952 20.074 16.6901 20.074 16.7849 20.1696C17.1642 20.3608 17.2591 20.2652 17.2591 20.2652L17.828 20.074H17.9229L18.0177 19.9785L18.2074 19.5961C18.2074 19.5961 19.1557 19.6917 19.535 19.6917C19.9143 19.1182 21.1471 18.2579 22.0006 18.1623C22.854 18.1623 24.2765 18.3535 25.4144 19.5005C26.4576 20.6476 26.1731 22.177 26.1731 22.177L28.2593 22.8461L27.311 22.177C26.5524 20.2652 24.7506 18.5446 24.7506 18.5446C24.7506 18.5446 24.2765 18.449 23.992 18.449C23.7075 18.3535 23.5178 18.1623 23.5178 18.1623C23.5178 18.1623 23.423 18.0667 23.2333 17.7799L23.0437 17.3976C23.0437 17.3976 22.854 17.2064 22.5695 17.0152C22.285 16.824 21.2419 16.7285 20.6729 16.6329C20.104 16.5373 20.104 16.6329 20.104 16.6329C21.7161 17.0152 22.1902 17.1108 22.285 17.2064C22.285 17.2064 22.3799 17.3976 22.4747 17.4932C21.1471 17.2064 19.9143 17.3976 19.6298 17.4932C19.8195 17.7799 19.8195 18.1623 19.6298 18.449C19.4401 18.6402 18.8712 18.927 18.8712 18.927ZM36.8889 25.8093L37.1734 27.052C37.1734 27.052 37.4579 26.7652 37.7423 26.3829C38.0268 26.0005 38.1217 25.6182 38.1217 25.6182L36.9837 25.7137L36.8889 25.8093ZM14.0348 17.1108L13.94 18.1623H14.509L14.6038 17.4932V17.8755H14.6986V17.302H14.6038V16.9196L15.4573 17.3976L15.5521 17.5887L15.7418 17.7799H15.9314L16.0263 17.6843V17.5887C15.4573 17.5887 15.4573 17.302 15.4573 17.302C15.4573 17.302 15.5521 16.6329 15.6469 16.4417C15.7418 16.2505 16.1211 16.3461 16.1211 16.3461L16.0263 16.2505H15.8366C15.6469 16.1549 15.078 15.7726 14.8883 15.677V15.5814L14.9831 15.4858V15.1035H15.078C15.078 15.0079 15.1728 15.0079 15.1728 14.9123C15.3624 14.9123 16.7849 14.6255 16.7849 14.6255L15.4573 14.3388V14.2432C15.078 14.1476 14.7935 14.052 14.6038 13.9564C14.1297 14.5299 13.94 15.2946 13.94 15.2946C13.94 15.2946 13.8452 16.6329 13.8452 16.824C13.7503 17.0152 14.0348 17.1108 14.0348 17.1108ZM36.3199 24.6623L36.5096 24.949L36.6044 24.8535L37.363 23.8976V23.802C36.9837 23.802 36.3199 24.6623 36.3199 24.6623ZM34.044 22.9417L33.475 22.7505L32.1474 24.2799L33.0957 24.5667C33.2853 23.802 34.044 22.9417 34.044 22.9417ZM36.0354 25.1402C35.5613 26.0961 35.6561 26.7652 35.6561 26.7652L36.1302 25.7137V25.5226C36.2251 25.5226 36.1302 25.3314 36.0354 25.1402ZM35.5613 18.927C35.5613 18.927 35.3716 19.3093 35.2768 19.4049C35.1819 19.5005 34.5181 19.5961 34.1388 19.6917C33.7595 19.8829 33.0957 20.1696 32.906 20.3608C32.8112 20.4564 32.8112 20.7432 32.8112 20.8388C32.8112 20.8388 33.0008 20.9343 33.0957 20.9343L32.2422 21.699L32.4319 21.8902L34.5181 22.5593C34.9923 22.177 35.6561 22.0814 35.6561 22.0814C35.2768 21.8902 33.6647 21.2211 33.1905 21.0299C33.1905 21.0299 32.906 20.9343 32.906 20.8388V20.552C32.906 20.552 34.1388 19.5961 36.0354 19.5961L36.3199 19.0226L35.5613 18.927ZM36.794 27.3387L36.4147 26.1917H36.3199L35.7509 27.2432L35.8457 27.3387C36.3199 27.5299 36.794 27.3387 36.794 27.3387ZM22.4747 16.4417L22.7592 16.5373C22.7592 16.5373 22.9489 16.5373 22.9489 16.3461V15.9638L22.6644 15.7726L22.285 15.677C22.3799 15.7726 22.3799 15.8682 22.3799 15.8682H22.4747C22.4747 15.7726 22.5695 15.7726 22.5695 15.8682C22.5695 15.8682 22.7592 15.9638 22.6644 16.2505C22.7592 16.3461 22.5695 16.4417 22.4747 16.4417ZM21.6212 21.699C20.9574 22.9417 21.4316 23.802 21.4316 23.802L22.285 22.5593V22.3682L21.6212 21.699ZM15.4573 14.3388L16.5952 14.6255C16.6901 14.6255 17.3539 14.5299 17.3539 14.5299L15.5521 14.052L15.4573 14.3388ZM16.1211 14.052C17.6384 14.2432 17.9229 14.5299 17.9229 14.5299C17.9229 14.5299 18.4918 14.4343 18.7763 14.4343C18.3022 14.052 16.2159 13.3829 16.2159 13.3829C16.2159 13.3829 16.1211 13.6696 16.1211 14.052ZM18.397 17.0152C18.1125 17.2064 17.828 17.7799 17.9229 18.2579C18.0177 18.7358 18.1125 18.7358 18.397 18.7358C17.9229 18.5446 18.0177 17.7799 18.397 17.302C18.6815 16.9196 18.966 17.2064 18.966 17.2064C18.966 17.2064 18.6815 16.824 18.397 17.0152ZM11.6641 31.1623C10.4313 31.1623 9.00883 31.6402 9.8623 32.9785C16.8797 45.1182 24.2765 47.9858 27.4059 49.5152C28.8283 48.8461 31.1042 47.7946 33.8543 45.8829C35.4664 44.8314 35.2768 43.2064 34.8974 42.1549C32.906 37.1843 22.0006 31.5446 11.6641 31.1623ZM51.2082 8.50787C48.3633 6.50051 41.3459 2.86816 27.4059 2.86816C22.5695 2.86816 18.4918 3.3461 15.2676 4.01522C16.0263 5.25787 16.4056 6.69169 16.4056 8.2211C16.4056 10.324 15.6469 12.2358 14.4141 13.6696C14.6986 13.7652 15.078 13.8608 15.5521 13.9564L15.7418 13.4785C15.7418 13.4785 15.9314 13.4785 16.0263 13.574C16.0263 13.0961 16.3107 13.0961 16.3107 13.0961C16.3107 13.0961 16.3107 13.0005 16.4056 13.0005C16.8797 13.0961 18.2073 13.7652 18.7763 14.052C19.3453 14.3388 19.3453 14.4343 19.3453 14.4343C19.3453 14.4343 20.6729 14.4343 21.0523 14.3388C21.4316 14.3388 22.0954 14.052 23.0437 13.7652C23.992 13.4785 24.1816 13.3829 24.3713 13.3829C24.561 13.3829 26.2679 13.4785 27.7852 13.6696C29.3025 13.8608 30.7249 14.4343 31.0094 14.6255L31.4836 14.7211L31.5784 14.4343L30.8197 14.1476C30.8197 14.1476 30.9146 13.6696 30.9146 13.574C30.9146 13.4785 31.0094 13.3829 31.1042 13.3829C31.1991 13.3829 32.0525 13.574 32.337 13.6696C32.6215 13.7652 33.5698 14.4343 33.6647 14.4343C33.7595 14.4343 33.7595 14.5299 33.7595 14.5299C33.7595 14.7211 33.5698 15.1035 33.5698 15.1035C33.5698 15.1035 33.8543 15.199 33.9491 15.2946C34.044 15.3902 34.3285 15.5814 34.613 15.8682C34.8974 16.0593 34.8026 16.3461 34.8026 16.3461L35.4664 17.0152V17.302L37.0785 18.927V19.0226L36.3199 19.5005C36.3199 19.5005 37.363 19.4049 38.1217 19.7873C38.8803 20.1696 38.9751 20.3608 38.9751 20.552C38.7855 20.6476 38.501 20.7432 38.501 20.7432C37.932 20.9343 36.5096 21.8902 36.5096 21.8902V21.9858L37.2682 22.177C38.1217 21.4123 39.6389 21.1255 40.7769 21.3167C44.6649 22.0814 47.3202 24.6623 47.8892 26.8608C47.8892 26.9564 47.984 27.1476 47.984 27.2432C51.872 18.0667 51.4927 11.4711 51.2082 8.50787ZM37.5527 22.4638C37.6475 22.5593 37.7423 22.5593 37.8372 22.6549C38.4062 23.0373 38.6906 23.2285 38.7855 24.0888C38.8803 24.7579 38.6906 25.7138 38.2165 26.574C40.8717 28.3902 44.5701 26.9564 45.9926 28.3902C45.7081 24.7579 40.3976 21.1255 37.5527 22.4638ZM15.7418 17.7799L15.5521 17.8755V18.6402L15.7418 18.5446V17.7799ZM43.1477 29.6329C41.1562 29.6329 39.1648 28.9638 37.7423 27.2432V27.3387C36.8889 28.4858 35.9406 28.4858 35.5613 28.4858C35.1819 28.4858 33.9491 27.9123 33.475 27.3387C33.0008 26.7652 33.0008 25.7137 33.0008 25.7137L31.1042 25.0446L28.7335 23.7064L28.3542 23.6108C27.5955 23.9932 26.6472 23.7064 25.7938 23.0373C25.6989 23.4196 25.2248 24.3755 24.6558 24.8535C24.0868 25.3314 22.9489 26.0005 22.0954 26.0005C21.2419 26.0005 19.3453 25.0446 18.7763 23.7064C18.2073 22.3682 18.7763 20.9343 18.7763 20.9343L17.828 20.7432L17.4487 20.2652C17.4487 20.2652 16.3107 21.2211 15.078 20.8388C13.8452 20.4564 12.802 19.4049 12.5175 18.449C12.3279 17.4932 12.6124 16.6329 12.7072 16.5373C12.5175 15.8682 12.5175 15.4858 12.5175 15.4858H12.4227V15.199C11.1899 16.0593 9.76747 16.4417 8.25019 16.4417C6.54325 16.4417 4.93114 15.8682 3.60352 15.0079C3.79318 17.1108 4.36215 19.5961 5.1208 22.3682C6.16393 26.1917 9.57781 27.4343 14.6986 28.2946C25.9834 30.1108 36.794 38.8093 36.0354 44.1623C38.8803 41.7726 41.9149 38.2358 44.9494 32.9785C46.1822 30.9711 45.0443 29.6329 43.1477 29.6329ZM12.9917 16.4417L12.8969 17.4932H13.5607V17.3976H13.4658V17.302H13.371L13.4658 17.1108L13.5607 16.6329L13.4658 16.5373V16.3461L13.5607 16.2505L13.6555 15.1035L13.1814 14.8167C13.371 14.052 13.8452 13.3829 13.8452 13.3829H13.5607C13.0865 13.9564 12.8969 14.7211 12.8969 14.7211C12.8969 14.7211 12.802 15.9637 12.802 16.1549C12.802 16.4417 12.9917 16.4417 12.9917 16.4417ZM23.423 22.8461L23.8972 24.3755C24.8455 23.7064 25.0351 22.6549 25.0351 22.6549L23.5178 22.7505L23.423 22.8461ZM24.2765 20.4564L23.5178 21.7946L23.6127 21.8902L25.1299 21.9858C25.1299 20.9343 24.2765 20.4564 24.2765 20.4564ZM14.7935 17.4932L14.6986 18.0667H14.7935V17.4932ZM22.0006 21.1255L22.7592 21.699L22.9489 21.6035L23.8023 20.2652C22.7592 20.1696 22.0006 21.1255 22.0006 21.1255ZM14.9831 17.5887L14.8883 17.4932V18.1623H14.9831V17.5887ZM15.2676 17.7799L15.1728 18.449H15.2676V17.7799ZM15.4573 17.8755L15.3624 18.5446H15.4573V17.8755ZM15.078 17.6843L14.9831 18.3535H15.078V17.6843Z" fill="url(#paint0_radial_324_5265)"/>
<path opacity="0.4" d="M51.2086 8.50684C51.4931 12.0436 51.9672 20.7421 44.9498 32.9774C38.0272 45.1171 30.5356 47.9848 27.4062 49.5142V47.698C33.1909 44.5436 38.2169 39.4774 42.1997 31.448C46.8464 22.176 47.4154 14.6245 47.0361 10.801L51.2086 8.50684Z" fill="black"/>
<path opacity="0.4" d="M51.2082 8.50787C48.3633 6.50051 41.3458 2.86816 27.4058 2.86816C22.5695 2.86816 18.4918 3.3461 15.2676 4.01522C15.9314 5.06669 16.3107 6.30934 16.4055 7.64758C20.0091 6.97846 23.8971 6.59611 28.0696 6.69169C36.9837 6.78728 44.1908 8.79463 47.1305 10.802L51.2082 8.50787Z" fill="url(#paint1_linear_324_5265)"/>
<path d="M8.25056 14.1469C11.4977 14.1469 14.13 11.4935 14.13 8.22041C14.13 4.94732 11.4977 2.29395 8.25056 2.29395C5.00342 2.29395 2.37109 4.94732 2.37109 8.22041C2.37109 11.4935 5.00342 14.1469 8.25056 14.1469Z" fill="url(#paint2_radial_324_5265)"/>
<defs>
<radialGradient id="paint0_radial_324_5265" cx="0" cy="0" r="1" gradientUnits="userSpaceOnUse" gradientTransform="translate(8.08613 8.06625) scale(45.306 45.6682)">
<stop stop-color="#00AEFF"/>
<stop offset="0.131" stop-color="#00A5F7"/>
<stop offset="0.345" stop-color="#008DE0"/>
<stop offset="0.616" stop-color="#0065BA"/>
<stop offset="0.928" stop-color="#002F87"/>
<stop offset="1" stop-color="#00217A"/>
</radialGradient>
<linearGradient id="paint1_linear_324_5265" x1="15.2676" y1="6.83507" x2="51.2679" y2="6.83507" gradientUnits="userSpaceOnUse">
<stop stop-color="white"/>
<stop offset="1" stop-color="white" stop-opacity="0"/>
</linearGradient>
<radialGradient id="paint2_radial_324_5265" cx="0" cy="0" r="1" gradientUnits="userSpaceOnUse" gradientTransform="translate(6.66595 5.83167) scale(7.85762 7.92044)">
<stop stop-color="white"/>
<stop offset="0.679" stop-color="#7A7A7A"/>
<stop offset="1" stop-color="#404040"/>
</radialGradient>
</defs>
</svg>
