<svg width="54" height="40" viewBox="0 0 54 40" fill="none" xmlns="http://www.w3.org/2000/svg">
<path fill-rule="evenodd" clip-rule="evenodd" d="M48.7048 21.3038C48.4177 22.5224 48.1311 23.683 47.9017 24.7855L50.1959 31.7488L53.6367 21.3038H48.7048ZM10.9127 0.819699C9.70838 0.239431 8.33201 -0.0507472 6.95569 0.00728843C5.92344 0.00728843 4.83382 0.181395 3.85891 0.529565C3.05608 0.819699 2.31054 1.34198 1.73709 1.98028C1.2783 2.50251 0.934216 3.19889 0.819507 3.89523C0.704799 4.88171 0.647467 5.86818 0.647467 6.85465V12.1933C0.590134 13.586 0.762175 14.9206 1.16359 16.2553C1.56505 17.1838 2.31054 17.9381 3.22812 18.3443C4.48974 18.8666 5.80873 19.1567 7.12773 19.0987C8.44672 19.1567 9.76571 18.8086 10.97 18.2283C11.8876 17.7641 12.5757 17.0677 12.9772 16.1392C13.3213 14.8046 13.4933 13.4699 13.4359 12.0772V11.3809H8.04531V13.7021C8.10264 14.3404 8.04531 14.9787 7.87327 15.617C7.70122 15.9072 7.41448 16.0812 7.07039 16.0232C6.72631 16.0812 6.43956 15.9072 6.26752 15.617C6.09548 15.0367 6.03815 14.4564 6.09548 13.8761V5.34595C6.03815 4.76564 6.09548 4.12733 6.26752 3.54707C6.38223 3.25689 6.66894 3.14086 7.12773 3.14086C7.41448 3.08282 7.70122 3.25689 7.87327 3.48903C8.04531 4.0693 8.10264 4.64961 8.04531 5.22988V8.42144H13.4359V6.68059C13.4933 5.40394 13.3786 4.12733 12.9772 2.90872C12.5757 1.92224 11.8302 1.2259 10.9127 0.819699ZM33.6223 0.355458H28.2316V18.6925H36.8911V15.0367H33.6223V0.355458ZM43.6009 0.355458H38.2099V18.6925H46.8698V15.0367H43.6009V0.355458ZM16.3607 0.297423L13.608 18.6925H18.7119L20.4897 4.30144L21.4646 12.1933H20.375L20.0309 15.2688H21.866L22.2675 18.6925H27.3714L24.2173 0.297423H16.3607ZM50.2532 7.493C50.0808 7.26086 49.9088 7.0868 49.6221 6.97072C49.3355 6.85465 49.0488 6.79666 48.7622 6.79666C48.4751 6.79666 48.1884 6.85465 47.9017 6.97072C47.6724 7.0868 47.4431 7.26086 47.3284 7.493C47.1564 7.7251 47.0991 7.9572 47.0417 8.18934C47.0417 8.47947 46.9844 8.88568 46.9844 9.52398V10.6265C46.9844 11.2648 46.9844 11.7291 47.0417 12.0192C47.0991 12.2513 47.1564 12.5415 47.3284 12.7155C47.5004 12.9477 47.6724 13.1218 47.9591 13.2378C48.2457 13.3539 48.5328 13.4119 48.8195 13.4119C49.1062 13.4119 49.3928 13.3539 49.6795 13.2378C49.9088 13.1218 50.1381 12.9477 50.2532 12.7155C50.4252 12.4834 50.4826 12.2513 50.5399 12.0192C50.5399 11.7291 50.5972 11.3229 50.5972 10.6846V9.64005C50.5972 9.00175 50.5972 8.53751 50.5399 8.24738C50.4826 7.9572 50.3679 7.7251 50.2532 7.493ZM48.9915 11.497C48.9915 11.7291 48.9915 11.9612 48.9342 12.1933C48.9342 12.3093 48.8195 12.3674 48.7622 12.3674C48.6475 12.3674 48.5902 12.3094 48.5902 12.2513C48.5328 12.0192 48.5328 11.7871 48.5328 11.613V8.65358C48.5328 8.47947 48.5328 8.24738 48.5902 8.07327C48.6475 8.01523 48.7048 7.9572 48.7622 7.9572C48.8195 7.9572 48.9342 8.01523 48.9342 8.07327C48.9915 8.24738 48.9915 8.47947 48.9915 8.65358V11.497ZM47.5577 26.4684L47.2711 25.5399L45.8947 21.3038H40.9628L44.7476 33.0838V39.7568H49.7368V33.0838L47.5577 26.4684ZM51.0559 13.2959H52.4896V10.6265H53.407V9.40791H52.4896V8.18934H53.522V6.97072H51.0559V13.2959ZM12.2317 22.6384C11.6582 22.1162 10.9127 21.71 10.1098 21.5939C8.33201 21.3038 6.55427 21.2458 4.83382 21.3038H0.762175V39.6406H7.58652C8.56143 39.6406 9.53634 39.583 10.5113 39.4668C11.0847 39.3507 11.6582 39.1184 12.117 38.8284C12.5757 38.5384 12.8625 38.0742 13.0345 37.552C13.2639 36.4493 13.3786 35.3467 13.3213 34.2441V27.745C13.3786 26.5844 13.3213 25.4238 13.1492 24.2633C12.9772 23.683 12.6905 23.1027 12.2317 22.6384ZM7.87327 33.838C7.87327 35.0567 7.75856 35.8109 7.58652 36.1013C7.41447 36.3913 6.89835 36.5074 6.15281 36.5074V24.4373C6.55427 24.3793 6.95569 24.4373 7.35714 24.6114C7.58652 24.7275 7.70122 24.9016 7.75856 25.1337C7.81589 25.6559 7.87327 26.1782 7.87327 26.7585V33.838ZM28.1169 24.9596H31.3284V39.6406H36.7764V24.9596H39.9877V21.3038H28.1169V24.9596ZM21.5793 34.8244C21.6367 35.4048 21.5793 35.9851 21.4646 36.5655C21.3499 36.7974 21.0632 36.9716 20.7765 36.9135C20.547 36.9135 20.3177 36.7974 20.203 36.5655C20.0882 36.0432 20.0309 35.5209 20.0882 35.0567V21.3038H14.6976V32.155C14.6976 33.4899 14.6976 34.8825 14.8123 36.217C14.927 36.9135 15.2137 37.552 15.6151 38.0742C16.1886 38.7122 16.9341 39.2345 17.737 39.4668C18.7693 39.873 19.9162 40.0472 21.0058 39.9891C21.9807 39.9891 22.9557 39.873 23.9306 39.5249C24.6761 39.2345 25.3642 38.7703 25.9377 38.19C26.3965 37.7258 26.6832 37.0878 26.8553 36.4493C26.97 35.4629 27.0273 34.4764 27.0273 33.4899V21.3038H21.6367L21.5793 34.8244Z" fill="#EEEEEE"/>
</svg>
