<svg width="57" height="52" viewBox="0 0 57 52" fill="none" xmlns="http://www.w3.org/2000/svg">
<path d="M53.523 7.8999C52.8461 7.89857 51.8961 7.82972 51.2261 7.93109C50.2275 8.10269 49.2105 7.81931 48.2043 7.7894C48.1898 7.55019 48.3768 7.12255 48.3679 6.88462C48.179 6.86122 47.9915 6.84824 47.8095 6.80664C47.64 6.21253 47.7054 5.58595 47.6853 4.97629C47.589 4.97501 47.395 4.97106 47.2987 4.96844C47.2679 5.66264 47.2704 6.35684 47.2623 7.05103C47.0148 6.85471 46.8423 6.47385 46.4821 6.50115L36.653 6.49981C36.1339 6.5544 35.7285 6.20991 35.3096 5.9668C35.2695 5.64704 35.2173 5.32986 35.1531 5.01523C34.8587 5.40917 34.832 5.91355 34.7236 6.37761C33.9422 6.52839 33.1701 6.95351 32.374 7.02113C32.3044 6.57394 32.2308 6.12804 32.18 5.67695C32.6014 5.4794 33.0751 5.34673 33.4243 5.02436C33.8351 3.85702 33.3601 2.64284 33.0885 1.50151C32.2469 0.906068 31.3142 0.379623 30.3441 0H28.9499C27.9918 0.304211 27.0378 0.802082 26.4932 1.67829C25.6503 2.96393 25.5338 4.61488 26.0637 6.04226C25.9888 6.09161 25.8389 6.19304 25.764 6.24505C24.8514 5.54306 23.5897 5.89016 22.7159 6.47904C21.4474 7.41373 20.7704 8.94248 20.4894 10.4504C20.1991 11.7282 20.3288 13.0399 20.484 14.3243C19.9595 14.4504 19.4216 14.4751 18.8877 14.5141C18.6643 14.5232 18.382 14.6103 18.3579 14.869C18.1973 15.8856 18.3164 16.9307 18.101 17.9408C17.9618 18.5882 17.8722 19.246 17.8949 19.909C18.4797 20.0376 19.0684 20.1611 19.6558 20.282C19.2544 20.4614 18.7927 20.5888 18.5064 20.9437C18.2549 22.5829 18.8543 24.1988 18.8008 25.8433C18.5064 26.0929 18.1385 26.3178 18.0421 26.7181C17.8615 27.19 18.1491 27.6697 18.0783 28.152C18.01 28.6772 18.1318 29.1998 18.3044 29.6912C18.4663 30.1032 18.3311 30.5452 18.2669 30.9651C18.0769 32.0519 17.8588 33.1412 17.812 34.245C17.7745 34.8273 17.9819 35.4279 17.7905 35.9934C17.167 37.3815 16.1194 38.54 15.5653 39.9636C15.3206 40.6187 15.445 41.3675 15.093 41.9886C14.7171 42.6883 14.1979 43.3784 14.2447 44.217C14.2032 44.7849 14.6689 45.2945 14.4722 45.8627C14.1805 47.0207 13.8875 48.1806 13.5636 49.3323C13.3442 50.0977 13.3028 50.9365 13.5476 51.7009C13.8754 51.8681 14.2447 51.9245 14.6033 51.9999H15.9828C16.4284 51.9594 16.87 51.8866 17.3155 51.8255C17.444 51.2253 17.2928 50.6384 17.0841 50.0798C16.8245 48.6705 17.056 47.1731 17.7799 45.9301C18.0301 45.6077 18.485 45.4829 18.663 45.0981C18.9292 44.5486 19.0564 43.9466 19.2999 43.3876C19.6424 42.5918 20.1108 41.8447 20.3248 40.9982C20.4439 40.5356 20.3074 40.0609 20.3502 39.5929C20.48 39.0742 20.7195 38.5658 21.1129 38.1915C21.6401 37.7118 21.8462 36.9776 22.4229 36.542C22.8163 36.2559 22.835 35.7438 22.918 35.3057C22.9956 34.7259 23.1896 34.1708 23.405 33.6287C23.7114 32.8787 23.9229 32.0558 24.5129 31.4643C24.8876 31.0834 25.0749 30.5764 25.2114 30.072C25.4455 30.5128 25.6329 31.0016 26.0089 31.3473C26.4303 31.5527 27.0445 31.4422 27.3001 31.9115C28.0347 32.9983 28.0895 33.6171 28.8268 34.7038C29.1787 35.3784 30.027 35.2134 30.6546 35.2316C31.0158 35.7139 31.4186 35.853 31.2982 36.4381C31.2754 37.097 30.7028 37.6053 30.783 38.2801C30.8459 39.6529 30.9503 41.0372 31.3169 42.3672C31.4454 42.987 31.7772 43.5564 31.7879 44.2012C31.8039 44.9475 31.6581 46.1691 31.5042 46.9063C31.1296 47.8933 30.874 48.925 30.8259 49.9823C31.7116 50.4891 32.7339 49.9741 33.6598 50.2747C34.6754 50.601 35.7405 50.7179 36.8043 50.6984C37.4586 50.6872 38.1142 50.6246 38.7578 50.5266C38.7618 50.167 38.882 49.7755 38.7136 49.439C38.1784 48.8239 37.2832 48.8214 36.633 48.3966C36.1071 47.9359 35.6776 47.3742 35.2387 46.835C34.8681 46.4113 35.3645 45.8249 35.3498 45.2907C35.3551 44.4795 35.3511 43.6438 35.6589 42.8792C35.8863 42.2711 35.8101 41.6129 35.687 40.9931C35.521 40.2298 35.802 39.4773 35.8743 38.7218C35.9786 37.6922 36.0536 36.6602 36.1205 35.6281C36.1687 35.0392 35.9613 34.4776 35.8141 33.9173C35.7271 33.3895 35.2107 33.0919 35.0594 32.5914C34.1737 30.2176 33.3628 28.2638 31.618 26.371C30.9476 25.7224 30.6091 24.6382 31.0159 23.7659C31.3932 23.866 31.7678 23.9765 32.1505 24.0701C32.5586 23.5359 32.9574 22.9456 33.0229 22.2593C33.0899 21.5521 33.1099 20.841 33.1741 20.1338C33.2035 19.363 33.3748 18.5687 33.1701 17.8121C33.0363 17.2947 32.5105 17.0711 32.1037 16.8085C32.2014 16.4484 32.3003 16.0909 32.3873 15.7283C33.7294 16.364 34.9738 17.2856 36.4764 17.5118C36.8792 17.5716 37.31 17.7588 37.7101 17.5794C38.2614 17.322 38.6869 16.8722 39.1685 16.5108C40.0411 15.844 39.9204 14.6272 40.2244 13.6756C40.5215 13.5638 40.8238 13.4611 41.1248 13.352C40.9266 12.5082 40.5815 11.6555 40.6992 10.7754C41.0606 10.2957 41.517 10.0085 41.893 9.5391C42.1619 9.18298 42.6273 9.09064 43.0516 9.10105C44.3293 9.09453 45.6087 9.11664 46.8876 9.10233C46.9292 8.92165 46.778 9.28306 46.8234 9.10233C48.1537 9.17646 49.4851 8.89569 50.8174 9.05688C51.6485 9.19596 52.7642 9.13876 53.599 9.07894C53.5552 8.83978 53.5336 8.13778 53.523 7.8999ZM37.0692 12.4458C36.8163 12.0064 36.4376 11.5931 36.3627 11.0861C36.4029 11.0328 36.4858 10.9301 36.5259 10.8781C37.0692 10.8222 37.6164 10.8573 38.161 10.8833C37.8091 11.4111 37.4372 11.9285 37.0692 12.4458ZM36.9902 10.7455C37.3515 10.5661 37.468 10.1956 37.5147 9.82254C37.8051 9.80823 38.0968 9.79909 38.3912 9.79263C38.4019 10.0669 38.4112 10.3386 38.422 10.6129C37.9509 10.7156 37.468 10.7143 36.9902 10.7455Z" fill="#E2AD00"/>
<path d="M53.5209 24.699H44.1546V22.0991H56.1969C56.0222 21.0682 55.3135 20.1478 54.3309 19.7488C53.6708 19.455 52.9337 19.5018 52.2298 19.5018L44.1546 19.4991C42.8166 19.4991 41.4785 20.7991 41.4785 22.0991V24.699C41.5522 25.9964 42.8166 27.2989 44.1546 27.2989H53.5209V29.8989H41.4785C41.6579 30.7269 42.1075 31.5069 42.8405 31.9697C43.4828 32.4195 44.2899 32.5209 45.0576 32.4988H53.5209C54.8589 32.4988 56.1969 31.1988 56.1969 29.8989V27.2989C56.1969 25.9989 55.0194 24.7237 53.5209 24.699Z" fill="#E2AD00"/>
<path d="M2.67613 22.0989H13.3805C13.3805 20.6625 12.1829 19.499 10.7044 19.499H2.67613C1.19758 19.499 0 20.6625 0 22.0989V29.8987C0 31.3352 1.19758 32.4986 2.67613 32.4986H10.7044C12.1829 32.4986 13.3805 31.3352 13.3805 29.8987H2.67613V22.0989Z" fill="#E2AD00"/>
</svg>
