<svg width="122" height="122" viewBox="0 0 122 122" fill="none" xmlns="http://www.w3.org/2000/svg">
<path fill-rule="evenodd" clip-rule="evenodd" d="M58.8967 40.7028C55.5618 41.0336 52.3629 42.1951 49.5927 44.0811C46.8225 45.9671 44.5691 48.5175 43.0388 51.4989C41.5084 54.4805 40.7498 57.7981 40.8324 61.1483C40.9149 64.4987 41.836 67.7748 43.5113 70.6773C45.6837 74.4272 49.0128 77.3722 52.9997 79.0709C54.8557 79.8607 57.9688 81.0125 59.1797 86.8638L58.8967 66.8337C57.5887 66.4124 56.4479 65.587 55.6388 64.4764C54.8296 63.3656 54.3936 62.0267 54.3936 60.6525C54.3936 59.2783 54.8296 57.9395 55.6388 56.8287C56.4479 55.7181 57.5887 54.8926 58.8967 54.4714V40.7028ZM62.1019 80.8853C65.4369 80.5544 68.6357 79.3929 71.406 77.507C74.1763 75.6209 76.4296 73.0706 77.9599 70.0891C79.4903 67.1076 80.2489 63.7901 80.1664 60.4398C80.0838 57.0894 79.1627 53.8133 77.4874 50.9108C75.3153 47.16 71.9862 44.2142 67.999 42.515C66.1453 41.7252 63.03 40.5734 61.8189 34.7246L62.1042 54.7544C63.4122 55.1756 64.553 56.0011 65.3622 57.1117C66.1714 58.2225 66.6074 59.5613 66.6074 60.9355C66.6074 62.3097 66.1714 63.6486 65.3622 64.7594C64.553 65.87 63.4122 66.6954 62.1042 67.1167L62.1019 80.8853Z" fill="#E5C570"/>
<path fill-rule="evenodd" clip-rule="evenodd" d="M90.3921 27.2836C83.2044 20.7143 74.0675 16.6718 64.3716 15.7709C54.6757 14.87 44.9508 17.16 36.6756 22.2926C36.2763 22.5383 36.4036 24.3438 36.4036 24.3438L25.667 34.3828C25.667 34.3828 24.1401 33.9089 23.8438 34.3258C19.7541 40.0586 17.0774 46.677 16.032 53.641C14.9866 60.6051 15.6021 67.7176 17.8284 74.3986C22.1064 87.4913 11.8392 103.12 8.09863 109.961L38.5141 79.4663C31.4762 72.1477 30.0787 62.3851 32.8408 52.6136C34.2072 47.7842 36.8207 43.3995 40.4187 39.9001C44.0167 36.4007 48.4723 33.91 53.3379 32.6782C62.6507 30.3221 72.0733 32.0661 79.1374 38.47C82.3732 35.2955 86.6271 31.2675 90.3921 27.2836ZM30.6338 94.3822C37.8217 100.951 46.9582 104.994 56.6541 105.895C66.35 106.796 76.0749 104.506 84.3502 99.3732C84.7475 99.1275 84.6218 97.3217 84.6218 97.3217L95.3563 87.2829C95.3563 87.2829 96.8832 87.7565 97.18 87.3397C101.269 81.6075 103.946 74.9889 104.991 68.0249C106.037 61.0608 105.421 53.9482 103.195 47.2673C98.9169 34.1744 109.184 18.5455 112.925 11.7051L82.5094 42.1995C89.5471 49.5204 90.9451 59.2808 88.1848 69.0522C86.8185 73.8819 84.2042 78.2668 80.6061 81.7665C77.0077 85.2654 72.5516 87.7565 67.6856 88.9874C58.3728 91.3438 48.9502 89.5996 41.886 83.1961C38.6501 86.3723 34.3962 90.3984 30.6316 94.3822H30.6338Z" fill="#E5C570"/>
</svg>
