<svg width="53" height="44" viewBox="0 0 53 44" fill="none" xmlns="http://www.w3.org/2000/svg">
<path d="M34.8146 43.581H34.3764C29.1181 43.581 23.8597 43.581 18.6014 43.581C17.9441 43.581 17.5059 43.3619 17.2868 42.9238C11.8094 35.9127 6.11288 29.1206 0.635459 22.1095C0.416362 21.6713 0.197266 21.4523 0.197266 21.0141C0.197266 14.2221 0.197266 7.64914 0.197266 0.857139C0.197266 0.638042 0.197265 0.418945 0.416362 0.418945H0.635459C12.0285 14.6602 23.4215 28.9015 34.5955 43.1428C34.5955 43.1428 34.5955 43.3619 34.8146 43.3619V43.581Z" fill="#FF4655"/>
<path d="M52.3426 22.1095C50.8089 24.0814 49.0561 26.0533 47.5225 28.2443C47.0843 28.6825 46.6461 28.9015 46.2079 28.9015C40.9495 28.9015 35.6912 28.9015 30.652 28.9015H30.4329C30.2138 28.9015 29.9947 28.6825 30.2138 28.4634C30.2138 28.4634 30.2138 28.2443 30.4329 28.2443C35.6912 21.6714 40.7304 15.3175 45.9888 8.74463C48.1797 6.11547 50.3707 3.26721 52.3426 0.638042C52.3426 0.418945 52.5617 0.418945 52.7808 0.418945H52.9999C52.9999 0.638042 52.9999 0.638042 52.9999 0.857139C52.9999 7.43005 52.9999 14.2221 52.9999 20.795C52.7808 21.4523 52.5617 21.8904 52.3426 22.1095Z" fill="#FF4655"/>
</svg>
