<svg width="53" height="52" viewBox="0 0 53 52" fill="none" xmlns="http://www.w3.org/2000/svg">
<path d="M52.1972 4.95236V2.47618C52.1972 1.79277 51.6439 1.23807 50.9586 1.23807H46.0065C45.5163 1.23807 45.1226 1.27028 44.7684 1.3619V1.23807C44.7684 0.554655 44.2152 0 43.5306 0H36.1019C33.9551 0 33.1788 1.21827 32.7231 2.47618H31.7178C31.4293 2.09111 31.1496 1.59219 31.1496 1.23807C31.1496 0.554655 30.5961 0 29.9114 0H21.2448C20.6121 0 20.081 0.486558 20.0129 1.11429C19.9844 1.37426 19.4582 2.47618 18.6398 2.47618H15.2475C15.167 2.38086 15.0506 2.20379 14.9504 1.97721C14.7522 1.52781 14.3066 1.23807 13.8163 1.23807H1.43536C0.750729 1.23807 0.197266 1.79277 0.197266 2.47618V12.3809C0.197266 15.8761 1.21869 20.301 1.43412 21.1937L1.42424 23.0694L0.584785 23.863C0.337164 24.0958 0.197266 24.4214 0.197266 24.7619V29.7142C0.197266 30.0436 0.327277 30.3581 0.560044 30.5896L1.43536 31.4649V36.942L0.261645 40.4657C0.186148 40.6898 0.177457 40.9287 0.235662 41.1578L1.38583 45.761L0.262888 49.1336C0.13536 49.5112 0.199745 49.9271 0.432506 50.2492C0.664031 50.5709 1.0379 50.7617 1.43536 50.7617H18.7686C19.098 50.7617 19.4124 50.6314 19.644 50.3988L19.7554 50.2874C20.4128 51.1862 21.3278 52 22.4829 52H26.1972C27.1084 52 27.9057 51.6025 28.6077 51.2508C29.0881 51.0091 29.5846 50.7617 29.9114 50.7617H36.1019C36.4312 50.7617 36.7457 50.6314 36.9773 50.3988L37.2781 50.0981C37.3561 50.1973 37.4305 50.295 37.5035 50.3892C38.1112 51.1816 38.7391 52 39.8161 52H46.0065C46.6911 52 47.2448 51.4463 47.2448 50.7617V49.8716L50.6594 50.723C51.0295 50.8187 51.4223 50.7317 51.7241 50.4956C52.0248 50.2604 52.1993 49.8975 52.1972 49.5138C52.1956 49.3922 52.119 37.2442 52.1972 30.9672C52.2008 30.6329 52.0693 30.3123 51.8344 30.0757L50.9586 29.2017V23.5238C50.9586 23.1957 50.8292 22.88 50.5962 22.6484L49.9896 22.0418L50.7386 20.5437L51.8344 19.448C52.0668 19.2152 52.1972 18.8995 52.1972 18.5714L52.1786 12.3686C52.1786 12.2683 52.1661 12.1692 52.1423 12.0714L51.0331 7.57466L52.0668 5.50706C52.1527 5.33494 52.1972 5.14428 52.1972 4.95236ZM37.4502 9.90477L41.2188 12.3809L39.9622 19.8095L29.9114 12.3809L37.4502 9.90477ZM13.8163 42.095L8.86391 38.3807L11.3401 29.7142L21.2448 39.6189L13.8163 42.095ZM40.0637 40.8569H34.2856L8.86391 11.0512L13.4857 9.90477L43.5306 32.8317L40.0637 40.8569Z" fill="#BF2E1A"/>
</svg>
